<svg width="40" height="40" viewBox="0 0 40 40" fill="none" xmlns="http://www.w3.org/2000/svg">
<g clip-path="url(#clip0_875_381)">
<path d="M25.5557 4.44446H7.77789C7.18852 4.44446 6.62329 4.67858 6.20654 5.09533C5.78979 5.51208 5.55566 6.07731 5.55566 6.66668V33.3333C5.55566 33.9227 5.78979 34.4879 6.20654 34.9047C6.62329 35.3214 7.18852 35.5556 7.77789 35.5556H25.5557C26.145 35.5556 26.7103 35.3214 27.127 34.9047C27.5438 34.4879 27.7779 33.9227 27.7779 33.3333V26.6667H17.3668C17.0721 26.6667 16.7895 26.5496 16.5811 26.3412C16.3727 26.1329 16.2557 25.8503 16.2557 25.5556C16.2557 25.2609 16.3727 24.9783 16.5811 24.7699C16.7895 24.5615 17.0721 24.4445 17.3668 24.4445H27.7779V6.66668C27.7779 6.07731 27.5438 5.51208 27.127 5.09533C26.7103 4.67858 26.145 4.44446 25.5557 4.44446Z" fill="#9E9E9E"/>
<path d="M31.2889 19.2C31.0764 19.0179 30.803 18.9228 30.5233 18.9336C30.2437 18.9444 29.9784 19.0604 29.7805 19.2582C29.5827 19.4561 29.4667 19.7214 29.4559 20.001C29.4451 20.2807 29.5402 20.5541 29.7223 20.7666L33.4778 24.4444H27.7778V26.6666H33.4778L29.7223 30.5111C29.606 30.6107 29.5115 30.7333 29.4448 30.8711C29.3781 31.009 29.3406 31.1591 29.3347 31.3121C29.3288 31.4652 29.3546 31.6178 29.4105 31.7603C29.4663 31.9029 29.551 32.0324 29.6593 32.1407C29.7676 32.249 29.8971 32.3337 30.0397 32.3896C30.1823 32.4454 30.3349 32.4712 30.4879 32.4653C30.6409 32.4594 30.7911 32.4219 30.9289 32.3552C31.0668 32.2885 31.1893 32.1941 31.2889 32.0778L37.7778 25.6333L31.2889 19.2Z" fill="#9E9E9E"/>
</g>
<defs>
<clipPath id="clip0_875_381">
<rect width="40" height="40" fill="white"/>
</clipPath>
</defs>
</svg>
