<svg width="20" height="20" viewBox="0 0 20 20" fill="none" xmlns="http://www.w3.org/2000/svg">
<path d="M18.75 17.6758H0.78125C0.349121 17.6758 0 18.0249 0 18.457V19.3359C0 19.4434 0.0878906 19.5312 0.195312 19.5312H19.3359C19.4434 19.5312 19.5312 19.4434 19.5312 19.3359V18.457C19.5312 18.0249 19.1821 17.6758 18.75 17.6758ZM3.55713 15.625C3.60596 15.625 3.65479 15.6201 3.70361 15.6128L7.81006 14.8926C7.85889 14.8828 7.90527 14.8608 7.93945 14.8242L18.2886 4.4751C18.3112 4.45251 18.3292 4.42568 18.3414 4.39615C18.3537 4.36661 18.36 4.33495 18.36 4.30298C18.36 4.271 18.3537 4.23934 18.3414 4.20981C18.3292 4.18027 18.3112 4.15345 18.2886 4.13086L14.231 0.0708008C14.1846 0.0244141 14.1235 0 14.0576 0C13.9917 0 13.9307 0.0244141 13.8843 0.0708008L3.53516 10.4199C3.49853 10.4565 3.47656 10.5005 3.4668 10.5493L2.74658 14.6558C2.72283 14.7866 2.73132 14.9212 2.77131 15.0479C2.81129 15.1747 2.88158 15.2898 2.97607 15.3833C3.13721 15.5396 3.33984 15.625 3.55713 15.625V15.625Z" fill="black"/>
</svg>
