<svg width="40" height="40" viewBox="0 0 41 40" fill="none" xmlns="http://www.w3.org/2000/svg">
<path d="M0.123636 8.97843C0.371026 6.40509 1.8242 4.37828 3.54132 2.91957C5.03881 1.64749 6.88214 0.827069 8.82616 0.516388C10.7683 0.206063 12.8105 0.405794 14.7077 1.17348C16.5884 1.9345 18.301 3.26416 19.6674 5.17781C20.2144 5.94398 20.6218 7.02297 20.8332 7.87672C20.8548 7.96382 20.8621 8.04857 20.8796 8.1304C20.8897 8.21352 20.9115 8.29646 20.9205 8.37921C21.2856 11.7274 20.7351 14.7751 19.3879 17.5359C18.2574 19.8527 16.5969 21.9674 14.5236 23.9086C17.2289 23.885 22.3392 23.9117 23.6993 23.9081C23.8435 23.9077 23.9262 23.8427 23.9251 23.8149L23.9468 2.82794C23.9101 1.63606 24.6358 0.736615 25.5843 0.296944C25.9509 0.127032 26.353 0.026152 26.7581 0.00448153C27.1736 -0.0178294 27.5935 0.0426984 27.9846 0.196527C28.9123 0.56133 29.6548 1.41153 29.7489 2.86505L29.8454 23.9065L36.3553 23.9045C39.0673 24.1553 40.1315 25.5995 40.106 26.9137C40.0758 28.4755 38.4635 29.8528 36.4131 29.9502L29.9757 29.9501C29.9247 29.9511 29.8757 29.9518 29.8289 29.9521C29.8324 32.4005 29.8275 34.8491 29.8263 37.2976C29.8254 40.8074 23.9149 41.0234 23.9152 37.2086L23.9159 29.9496L5.10847 29.9484C0.904043 29.9354 -0.396378 27.3001 2.64719 24.7715C3.29483 24.2335 4.04285 23.8785 4.78359 23.5271C5.0793 23.3869 5.37373 23.2471 5.67715 23.0837C8.58338 21.5182 10.9019 19.6102 12.491 17.2907C13.9216 15.2027 14.7875 12.7696 14.9408 9.93656C14.9646 9.49795 14.8803 8.8235 14.7748 8.50738C14.4162 7.43286 13.5756 6.67959 12.6522 6.22152C11.9786 5.88735 11.2285 5.71879 10.4831 5.72968C9.74791 5.74043 9.01658 5.92717 8.36901 6.30332C5.71893 7.84282 6.45079 12.4621 2.19808 12.1348C0.989239 12.0417 -0.0400697 10.6816 0.123636 8.97843ZM4.74468 4.17891C3.64548 5.11743 2.90961 6.44989 2.27024 7.88744C0.957388 10.839 3.53353 11.3778 4.75404 8.12802C5.32238 6.61482 6.27443 5.53401 7.42603 4.86503C8.35805 4.32366 9.40814 4.05493 10.462 4.03953C11.5056 4.02426 12.5525 4.25872 13.4896 4.72359C14.9025 5.42448 16.1181 6.63073 16.6038 8.31551C16.6814 8.58473 16.7504 9.29523 16.7513 9.6536C16.7601 12.958 15.6624 15.7849 14.0041 18.2054C12.2478 20.7687 9.72006 22.8588 6.5709 24.5551C6.27284 24.7157 5.93329 24.8768 5.59286 25.0383C4.95059 25.343 4.30192 25.6508 3.83649 26.0375C2.7982 26.9 2.3418 27.8614 4.15945 28.2582C11.3422 28.2587 18.5252 28.2507 25.7078 28.261L25.7105 29.6352L25.7098 36.8634C25.7097 38.8021 27.9983 38.8807 28.0319 36.8634L28.0345 30.0199C28.0345 29.9163 28.0331 29.818 28.0318 29.7316C28.0317 29.728 28.0317 29.7244 28.0316 29.7208C28.0231 29.159 28.0189 28.8867 28.3877 28.558C28.7277 28.255 29.0002 28.2572 29.5273 28.2614C29.5301 28.2614 29.5328 28.2614 29.5356 28.2614C29.6461 28.2622 29.7783 28.2632 29.9405 28.2599L36.3915 28.2281C38.6213 28.2403 39.2094 25.7892 36.3529 25.5946C33.9715 25.5954 31.5833 25.6133 29.2027 25.596C28.082 25.5998 28.0361 25.265 28.0526 24.3225L27.9546 2.96451C27.9094 2.26935 27.6339 1.89397 27.295 1.76071C27.1591 1.70727 27.0087 1.68649 26.8566 1.69463C26.694 1.70332 26.5304 1.74477 26.3795 1.81473C26.01 1.98599 25.7272 2.33084 25.7413 2.7831L25.7089 23.711C25.7816 25.594 25.6947 25.594 24.3736 25.5928C24.3223 25.5927 24.2637 25.5927 24.1769 25.596C20.3005 25.596 16.424 25.5993 12.5475 25.5993C11.7696 25.5909 11.4774 25.283 11.4845 24.6932C11.4889 24.3205 11.6483 24.1616 11.8585 23.952L11.8595 23.951L11.9259 23.8835L11.9719 23.8452C14.5048 21.733 16.4981 19.4097 17.7553 16.8334C19.0003 14.2819 19.5278 11.4655 19.1462 8.33924C19.139 8.27968 19.137 8.25676 19.1224 8.1304C19.0624 7.77186 18.9578 7.41599 18.779 7.0931C17.5726 4.91439 15.8668 3.4877 13.997 2.73108C12.4247 2.09481 10.7319 1.92938 9.12169 2.18665C7.51339 2.44367 5.98669 3.12378 4.74468 4.17891Z" fill="white"/>
<path d="M0.123636 8.97843C0.371026 6.40509 1.8242 4.37828 3.54132 2.91957C5.03881 1.64749 6.88214 0.827069 8.82616 0.516388C10.7683 0.206063 12.8105 0.405794 14.7077 1.17348C16.5884 1.9345 18.301 3.26416 19.6674 5.17781C20.2144 5.94398 20.6218 7.02297 20.8332 7.87672C20.8548 7.96382 20.8621 8.04857 20.8796 8.1304C20.8897 8.21352 20.9115 8.29646 20.9205 8.37921C21.2856 11.7274 20.7351 14.7751 19.3879 17.5359C18.2574 19.8527 16.5969 21.9674 14.5236 23.9086C17.2289 23.885 22.3392 23.9117 23.6993 23.9081C23.8435 23.9077 23.9262 23.8427 23.9251 23.8149L23.9468 2.82794C23.9101 1.63606 24.6358 0.736615 25.5843 0.296944C25.9509 0.127032 26.353 0.026152 26.7581 0.00448153C27.1736 -0.0178294 27.5935 0.0426984 27.9846 0.196527C28.9123 0.56133 29.6548 1.41153 29.7489 2.86505L29.8454 23.9065L36.3553 23.9045C39.0673 24.1553 40.1315 25.5995 40.106 26.9137C40.0758 28.4755 38.4635 29.8528 36.4131 29.9502L29.9757 29.9501C29.9247 29.9511 29.8757 29.9518 29.8289 29.9521C29.8324 32.4005 29.8275 34.8491 29.8263 37.2976C29.8254 40.8074 23.9149 41.0234 23.9152 37.2086L23.9159 29.9496L5.10847 29.9484C0.904043 29.9354 -0.396378 27.3001 2.64719 24.7715C3.29483 24.2335 4.04285 23.8785 4.78359 23.5271C5.0793 23.3869 5.37373 23.2471 5.67715 23.0837C8.58338 21.5182 10.9019 19.6102 12.491 17.2907C13.9216 15.2027 14.7875 12.7696 14.9408 9.93656C14.9646 9.49795 14.8803 8.8235 14.7748 8.50738C14.4162 7.43286 13.5756 6.67959 12.6522 6.22152C11.9786 5.88735 11.2285 5.71879 10.4831 5.72968C9.74791 5.74043 9.01658 5.92717 8.36901 6.30332C5.71893 7.84282 6.45079 12.4621 2.19808 12.1348C0.989239 12.0417 -0.0400697 10.6816 0.123636 8.97843ZM4.74468 4.17891C3.64548 5.11743 2.90961 6.44989 2.27024 7.88744C0.957388 10.839 3.53353 11.3778 4.75404 8.12802C5.32238 6.61482 6.27443 5.53401 7.42603 4.86503C8.35805 4.32366 9.40814 4.05493 10.462 4.03953C11.5056 4.02426 12.5525 4.25872 13.4896 4.72359C14.9025 5.42448 16.1181 6.63073 16.6038 8.31551C16.6814 8.58473 16.7504 9.29523 16.7513 9.6536C16.7601 12.958 15.6624 15.7849 14.0041 18.2054C12.2478 20.7687 9.72006 22.8588 6.5709 24.5551C6.27284 24.7157 5.93329 24.8768 5.59286 25.0383C4.95059 25.343 4.30192 25.6508 3.83649 26.0375C2.7982 26.9 2.3418 27.8614 4.15945 28.2582C11.3422 28.2587 18.5252 28.2507 25.7078 28.261L25.7105 29.6352L25.7098 36.8634C25.7097 38.8021 27.9983 38.8807 28.0319 36.8634L28.0345 30.0199C28.0345 29.9163 28.0331 29.818 28.0318 29.7316C28.0317 29.728 28.0317 29.7244 28.0316 29.7208C28.0231 29.159 28.0189 28.8867 28.3877 28.558C28.7277 28.255 29.0002 28.2572 29.5273 28.2614C29.5301 28.2614 29.5328 28.2614 29.5356 28.2614C29.6461 28.2622 29.7783 28.2632 29.9405 28.2599L36.3915 28.2281C38.6213 28.2403 39.2094 25.7892 36.3529 25.5946C33.9715 25.5954 31.5833 25.6133 29.2027 25.596C28.082 25.5998 28.0361 25.265 28.0526 24.3225L27.9546 2.96451C27.9094 2.26935 27.6339 1.89397 27.295 1.76071C27.1591 1.70727 27.0087 1.68649 26.8566 1.69463C26.694 1.70332 26.5304 1.74477 26.3795 1.81473C26.01 1.98599 25.7272 2.33084 25.7413 2.7831L25.7089 23.711C25.7816 25.594 25.6947 25.594 24.3736 25.5928C24.3223 25.5927 24.2637 25.5927 24.1769 25.596C20.3005 25.596 16.424 25.5993 12.5475 25.5993C11.7696 25.5909 11.4774 25.283 11.4845 24.6932C11.4889 24.3205 11.6483 24.1616 11.8585 23.952L11.8595 23.951L11.9259 23.8835L11.9719 23.8452C14.5048 21.733 16.4981 19.4097 17.7553 16.8334C19.0003 14.2819 19.5278 11.4655 19.1462 8.33924C19.139 8.27968 19.137 8.25676 19.1224 8.1304C19.0624 7.77186 18.9578 7.41599 18.779 7.0931C17.5726 4.91439 15.8668 3.4877 13.997 2.73108C12.4247 2.09481 10.7319 1.92938 9.12169 2.18665C7.51339 2.44367 5.98669 3.12378 4.74468 4.17891Z" fill="white" fill-opacity="0.2"/>
<path d="M4.74468 4.17891C3.64548 5.11743 2.90961 6.44989 2.27024 7.88744C0.957388 10.839 3.53353 11.3778 4.75404 8.12802C5.32238 6.61482 6.27443 5.53401 7.42603 4.86503C8.35805 4.32366 9.40814 4.05493 10.462 4.03953C11.5056 4.02426 12.5525 4.25872 13.4896 4.72359C14.9025 5.42448 16.1181 6.63073 16.6038 8.31551C16.6814 8.58473 16.7504 9.29523 16.7513 9.6536C16.7601 12.958 15.6624 15.7849 14.0041 18.2054C12.2478 20.7687 9.72006 22.8588 6.5709 24.5551C6.27284 24.7157 5.93329 24.8768 5.59286 25.0383C4.95059 25.343 4.30192 25.6508 3.83649 26.0375C2.7982 26.9 2.3418 27.8614 4.15945 28.2582C11.3422 28.2587 18.5252 28.2507 25.7078 28.261L25.7105 29.6352L25.7098 36.8634C25.7097 38.8021 27.9983 38.8807 28.0319 36.8634L28.0345 30.0199C28.0345 29.9163 28.0331 29.818 28.0318 29.7316L28.0316 29.7208C28.0231 29.159 28.0189 28.8867 28.3877 28.558C28.7277 28.255 29.0002 28.2572 29.5273 28.2614L29.5356 28.2614C29.6461 28.2622 29.7783 28.2632 29.9405 28.2599L36.3915 28.2281C38.6213 28.2403 39.2094 25.7892 36.3529 25.5946C33.9715 25.5954 31.5833 25.6133 29.2027 25.596C28.082 25.5998 28.0361 25.265 28.0526 24.3225L27.9546 2.96451C27.9094 2.26935 27.6339 1.89397 27.295 1.76071C27.1591 1.70727 27.0087 1.68649 26.8566 1.69463C26.694 1.70332 26.5304 1.74477 26.3795 1.81473C26.01 1.98599 25.7272 2.33084 25.7413 2.7831L25.7089 23.711C25.7816 25.594 25.6947 25.594 24.3736 25.5928C24.3223 25.5927 24.2637 25.5927 24.1769 25.596C20.3005 25.596 16.424 25.5993 12.5475 25.5993C11.7696 25.5909 11.4774 25.283 11.4845 24.6932C11.4889 24.3205 11.6483 24.1616 11.8585 23.952L11.8595 23.951L11.9259 23.8835L11.9719 23.8452C14.5048 21.733 16.4981 19.4097 17.7553 16.8334C19.0003 14.2819 19.5278 11.4655 19.1462 8.33924C19.139 8.27968 19.137 8.25676 19.1224 8.1304C19.0624 7.77186 18.9578 7.41599 18.779 7.0931C17.5726 4.91439 15.8668 3.4877 13.997 2.73108C12.4247 2.09481 10.7319 1.92938 9.12169 2.18665C7.51339 2.44367 5.98669 3.12378 4.74468 4.17891Z" fill="white"/>
<path fill-rule="evenodd" clip-rule="evenodd" d="M12.9404 7.45868C14.3978 8.62714 14.5651 10.6966 13.3139 12.0809C12.0628 13.4651 9.86706 13.6401 8.40966 12.4716C6.95225 11.3032 6.78504 9.23373 8.03619 7.84946C9.28731 6.46518 11.483 6.29022 12.9404 7.45868Z" fill="url(#paint0_linear_1042_1080)"/>
<defs>
<linearGradient id="paint0_linear_1042_1080" x1="8.16982" y1="8.07257" x2="13.0805" y2="12.3498" gradientUnits="userSpaceOnUse">
<stop stop-color="#999999"/>
<stop offset="0.0666667" stop-color="#C4A685"/>
<stop offset="0.188235" stop-color="#F0B371"/>
<stop offset="0.290196" stop-color="#E8BE8E"/>
<stop offset="0.431373" stop-color="#FF8E0C"/>
<stop offset="0.541176" stop-color="#C9A890"/>
<stop offset="0.670588" stop-color="#995F2D"/>
<stop offset="0.768627" stop-color="#C9A891"/>
<stop offset="0.858824" stop-color="#BD9B7F"/>
<stop offset="1" stop-color="#7A583A"/>
</linearGradient>
</defs>
</svg>
